<?xml version="1.0" standalone="no"?>
<!DOCTYPE svg PUBLIC "-//W3C//DTD SVG 20010904//EN"
 "http://www.w3.org/TR/2001/REC-SVG-20010904/DTD/svg10.dtd">
<svg version="1.0" xmlns="http://www.w3.org/2000/svg"
 width="512.000000pt" height="512.000000pt" viewBox="0 0 512.000000 512.000000"
 preserveAspectRatio="xMidYMid meet">
<metadata>
Created by potrace 1.16, written by Peter Selinger 2001-2019
</metadata>
<g transform="translate(0.000000,512.000000) scale(0.100000,-0.100000)"
fill="#000000" stroke="none">
<path d="M2330 4781 c-451 -99 -790 -444 -875 -893 -21 -114 -20 -320 4 -433
94 -448 428 -782 876 -876 123 -26 327 -26 450 0 429 90 754 399 866 826 21
79 24 112 24 275 0 157 -3 198 -22 271 -102 400 -419 719 -817 821 -119 30
-388 35 -506 9z m425 -331 c77 -19 244 -103 309 -158 126 -105 225 -264 266
-426 25 -98 27 -257 4 -359 -21 -95 -100 -257 -163 -332 -153 -185 -372 -286
-615 -286 -127 1 -230 25 -351 85 -164 82 -285 207 -363 376 -52 111 -72 204
-72 333 0 512 480 886 985 767z"/>
<path d="M1519 2229 c-292 -43 -575 -187 -788 -401 -115 -115 -200 -235 -272
-383 -102 -210 -143 -396 -137 -615 3 -115 7 -143 28 -190 57 -133 156 -232
290 -291 l55 -24 1848 -3 c1842 -2 1847 -2 1910 18 77 26 184 97 231 154 46
56 83 126 103 195 24 84 13 331 -21 467 -65 263 -190 486 -378 673 -186 186
-401 307 -672 379 l-101 26 -1020 2 c-561 1 -1045 -2 -1076 -7z m2086 -336
c219 -50 397 -148 549 -299 198 -199 316 -471 316 -732 0 -104 -23 -153 -92
-192 l-43 -25 -1775 0 -1775 0 -43 25 c-69 39 -92 88 -92 192 0 477 375 928
855 1028 119 25 233 28 1115 26 865 -2 898 -3 985 -23z"/>
</g>
</svg>
