<?xml version="1.0" encoding="utf-8"?>
<!-- Generator: Adobe Illustrator 24.2.3, SVG Export Plug-In . SVG Version: 6.00 Build 0)  -->
<svg version="1.1" id="Layer_1" xmlns="http://www.w3.org/2000/svg" xmlns:xlink="http://www.w3.org/1999/xlink" x="0px" y="0px"
	 viewBox="0 0 512 512" style="enable-background:new 0 0 512 512;" xml:space="preserve">
<g transform="translate(0.000000,512.000000) scale(0.100000,-0.100000)">
	<path d="M2330,4781c-451-99-790-444-875-893c-21-114-20-320,4-433c94-448,428-782,876-876c123-26,327-26,450,0
		c429,90,754,399,866,826c21,79,24,112,24,275c0,157-3,198-22,271c-102,400-419,719-817,821C2717,4802,2448,4807,2330,4781z
		 M2755,2889c77,0,244,0,309,0c126,0,225,0,266,0c25,0,27,0,4,0c-21,0-100,0-163,0c-153,0-372,0-615,0c-127,0-230,0-351,0
		c-164,0-285,0-363,0c-52,0-72,0-72,0S2250,2889,2755,2889z"/>
	<path d="M1519,2229c-292-43-575-187-788-401c-115-115-200-235-272-383c-102-210-143-396-137-615c3-115,7-143,28-190
		c57-133,156-232,290-291l55-24l1848-3c1842-2,1847-2,1910,18c77,26,184,97,231,154c46,56,83,126,103,195c24,84,13,331-21,467
		c-65,263-190,486-378,673c-186,186-401,307-672,379l-101,26l-1020,2C2034,2237,1550,2234,1519,2229z M3605,645c219,0,397,0,549,0
		c198,0,316,0,316,0c0,0-23,0-92,0h-43H2560H785h-43c-69,0-92,0-92,0c0,0,375,0,855,0c119,0,233,0,1115,0
		C3485,645,3518,645,3605,645z"/>
</g>
</svg>
