<?xml version="1.0" standalone="no"?>
<!DOCTYPE svg PUBLIC "-//W3C//DTD SVG 20010904//EN"
 "http://www.w3.org/TR/2001/REC-SVG-20010904/DTD/svg10.dtd">
<svg version="1.0" xmlns="http://www.w3.org/2000/svg"
 width="500.000000pt" height="500.000000pt" viewBox="0 0 500.000000 500.000000"
 preserveAspectRatio="xMidYMid meet">
<metadata>
Created by potrace 1.16, written by Peter Selinger 2001-2019
</metadata>
<g transform="translate(0.000000,500.000000) scale(0.100000,-0.100000)"
fill="#000000" stroke="none">
<path d="M2205 4730 c-157 -24 -267 -51 -393 -95 -126 -43 -301 -120 -345
-149 -18 -12 -81 -50 -142 -85 -149 -85 -244 -163 -409 -331 -140 -144 -249
-277 -287 -353 -12 -23 -46 -83 -75 -133 -265 -447 -352 -1045 -229 -1584 44
-193 135 -425 229 -584 29 -50 63 -110 75 -133 38 -76 147 -209 287 -353 165
-168 260 -246 409 -331 61 -35 124 -73 142 -85 18 -12 79 -42 137 -67 313
-138 588 -197 911 -197 422 0 778 99 1160 324 179 105 239 152 415 326 166
164 243 254 292 340 14 25 51 88 83 140 281 461 375 1050 255 1605 -45 205
-145 455 -255 635 -32 52 -69 115 -83 140 -47 84 -125 175 -281 330 -168 167
-242 229 -336 283 -33 19 -105 60 -160 92 -240 140 -510 231 -808 270 -162 21
-437 19 -592 -5z m591 -279 c146 -22 367 -77 465 -117 177 -72 351 -180 551
-343 229 -188 494 -570 562 -811 8 -30 29 -102 46 -159 92 -317 92 -725 0
-1042 -17 -57 -38 -129 -46 -159 -19 -70 -142 -321 -187 -380 -18 -25 -58 -79
-89 -120 -94 -127 -200 -242 -299 -321 -270 -219 -462 -322 -736 -394 -369
-98 -689 -100 -1063 -5 -290 73 -474 170 -760 401 -100 81 -162 144 -245 249
-222 282 -336 514 -394 805 -40 196 -51 292 -51 445 0 401 119 799 328 1091
186 263 266 343 547 550 270 200 687 326 1085 328 105 1 197 -5 286 -18z"/>
<path d="M3690 3421 c-547 -180 -862 -282 -915 -295 -51 -12 -323 -99 -513
-162 -51 -17 -59 -25 -150 -147 -53 -70 -125 -165 -160 -210 -34 -45 -71 -98
-82 -117 -10 -19 -50 -75 -88 -125 -100 -129 -303 -403 -327 -441 -11 -17 -72
-101 -135 -185 -64 -85 -126 -168 -138 -186 l-23 -32 43 14 c24 8 149 48 278
90 129 42 330 108 445 145 116 38 266 85 335 105 147 43 334 102 478 152 l102
36 80 107 c44 60 92 122 108 139 15 17 44 56 62 86 43 68 208 296 224 310 14
12 176 232 248 337 29 43 105 147 169 231 133 176 155 207 143 206 -5 0 -88
-26 -184 -58z m-1046 -660 c102 -47 160 -140 160 -256 0 -161 -116 -278 -274
-279 -71 0 -109 12 -180 56 -49 31 -73 71 -96 161 -18 69 -13 118 22 197 55
124 233 183 368 121z"/>
</g>
</svg>
