<?xml version="1.0" encoding="utf-8"?>
<!-- Generator: Adobe Illustrator 24.2.3, SVG Export Plug-In . SVG Version: 6.00 Build 0)  -->
<svg version="1.1" id="Layer_1" xmlns="http://www.w3.org/2000/svg" xmlns:xlink="http://www.w3.org/1999/xlink" x="0px" y="0px"
	 viewBox="0 0 512 512" style="enable-background:new 0 0 512 512;" xml:space="preserve">
<g transform="translate(0.000000,512.000000) scale(0.100000,-0.100000)">
	<path d="M2355,5099c-98-24-241-93-315-152c-62-49-1667-1503-1773-1606c-114-110-188-227-238-376l-24-70L2,1825C0,1052,2,738,10,695
		C70,383,291,135,605,29l70-24l1855-3c1686-2,1862-1,1930,14c305,66,533,293,634,629c21,69,21,87,24,1127c3,1151,4,1120-54,1264
		c-37,93-84,170-141,234c-51,57-1730,1585-1836,1671c-80,65-220,133-327,159C2646,5127,2467,5127,2355,5099z M2692.2,4701
		c47-21.4,1887.6-1682.4,1930.4-1742.3c12.8-18.2,38.5-65.2,57.7-105.8l34.2-72.7l3.2-1036.8c2.1-779.2,0-1051.8-9.6-1098.8
		c-24.6-120.8-121.9-230.9-237.3-270.4c-38.5-12.8-315.3-15-1942.1-12.8l-1897.2,3.2l-56.7,32.1c-74.8,40.6-145.4,119.7-173.2,193.5
		c-21.4,58.8-21.4,69.5-19.2,1151.2l3.2,1092.4l23.5,50.2c12.8,27.8,46,71.6,74.8,98.3c935.3,851.9,1845.9,1670.6,1879.1,1691
		C2463.4,4732,2597,4742.7,2692.2,4701z"/>
</g>
</svg>
