<?xml version="1.0"?>
<svg xmlns="http://www.w3.org/2000/svg" xmlns:xlink="http://www.w3.org/1999/xlink" xmlns:svgjs="http://svgjs.com/svgjs" version="1.1" width="512" height="512" x="0" y="0" viewBox="0 0 365 365.99813" style="enable-background:new 0 0 512 512" xml:space="preserve" class=""><g><path xmlns="http://www.w3.org/2000/svg" d="m153.714844 7.628906c-10.171875-10.171875-26.664063-10.171875-36.835938 0l-18.585937 18.585938c11.929687 20.539062 8.539062 46.539062-8.257813 63.332031-16.796875 16.796875-42.792968 20.1875-63.332031 8.257813l-18.585937 18.589843c-10.15625 10.175781-10.15625 26.65625 0 36.832031l174.917968 174.921876 145.988282-145.210938zm0 0" fill="#0053d5" data-original="#000000" style=""/><path xmlns="http://www.w3.org/2000/svg" d="m338.921875 192.835938-145.984375 145.210937 20.320312 20.324219c10.171876 10.167968 26.664063 10.167968 36.835938 0l108.765625-108.765625c10.152344-10.179688 10.152344-26.65625 0-36.835938zm0 0" fill="#0053d5" data-original="#000000" style=""/></g></svg>
