<svg id="Capa_1" enable-background="new 0 0 512 512" height="512" viewBox="0 0 512 512" width="512" xmlns="http://www.w3.org/2000/svg"><g><path d="m474.5 109.5h-23.253c-3.485-17.095-18.638-30-36.747-30h-128.5c-20.678 0-37.5 16.822-37.5 37.5 0 4.142 3.357 7.5 7.5 7.5h218.5c9.777 0 18.114 6.271 21.21 15h-21.21c-4.143 0-7.5 3.358-7.5 7.5v142.5c0 4.142 3.357 7.5 7.5 7.5h22.5v68h-45.485c-3.705-29.555-28.972-52.5-59.515-52.5s-55.81 22.945-59.515 52.5h-152.97c-3.705-29.555-28.972-52.5-59.515-52.5-18.903 0-35.782 8.796-46.788 22.5h-58.212v-188c0-12.407 10.094-22.5 22.5-22.5h188.5c4.143 0 7.5-3.358 7.5-7.5s-3.357-7.5-7.5-7.5h-188.5c-20.678 0-37.5 16.822-37.5 37.5v225.5c0 4.142 3.357 7.5 7.5 7.5h52.985c3.705 29.555 28.972 52.5 59.515 52.5s55.81-22.945 59.515-52.5h152.971c3.705 29.555 28.972 52.5 59.515 52.5s55.81-22.945 59.515-52.5h52.984c4.143 0 7.5-3.358 7.5-7.5v-225.5c0-20.678-16.822-37.5-37.5-37.5zm-209.715 0c3.096-8.73 11.437-15 21.215-15h128.5c9.778 0 18.119 6.27 21.215 15zm-249.785 240.5h49.394c-1.922 4.732-3.252 9.761-3.908 15h-45.486zm105 67.5c-24.813 0-45-20.187-45-45s20.187-45 45-45 45 20.187 45 45-20.187 45-45 45zm272 0c-24.813 0-45-20.187-45-45s20.187-45 45-45 45 20.187 45 45-20.187 45-45 45zm90-135.5v-127.5h15v127.5z"/><path d="m120 342.5c-16.542 0-30 13.458-30 30s13.458 30 30 30 30-13.458 30-30-13.458-30-30-30zm0 45c-8.271 0-15-6.729-15-15s6.729-15 15-15 15 6.729 15 15-6.729 15-15 15z"/><path d="m392 342.5c-16.542 0-30 13.458-30 30s13.458 30 30 30 30-13.458 30-30-13.458-30-30-30zm0 45c-8.271 0-15-6.729-15-15s6.729-15 15-15 15 6.729 15 15-6.729 15-15 15z"/><path d="m30 147v112.5c0 4.142 3.357 7.5 7.5 7.5h259.268c7.393 0 14.566 1.522 21.322 4.525l44.229 19.657c8.686 3.86 17.909 5.818 27.414 5.818h54.767c4.143 0 7.5-3.358 7.5-7.5v-142.5c0-4.142-3.357-7.5-7.5-7.5h-407c-4.143 0-7.5 3.358-7.5 7.5zm15 7.5h392v127.5h-47.268c-7.393 0-14.566-1.522-21.322-4.525l-44.229-19.657c-8.686-3.86-17.909-5.818-27.414-5.818h-251.767z"/></g></svg>