<svg id="confetti" xmlns="http://www.w3.org/2000/svg" width="172.151" height="172.157" viewBox="0 0 172.151 172.157">
  <path id="Path_1959" data-name="Path 1959" d="M115.156,221.776,7.222,273.221A5.042,5.042,0,0,1,.48,266.54L51.925,155.916a5.047,5.047,0,0,1,8.221-1.355c34.6,36.254,21.739,22.778,56.489,59.179A5.047,5.047,0,0,1,115.156,221.776Z" transform="translate(-0.009 -101.556)" fill="#ffdd54"/>
  <path id="Path_1960" data-name="Path 1960" d="M119.549,276.424a5.047,5.047,0,0,1-1.479,8.036L10.135,335.9A5.047,5.047,0,0,1,4.4,334.92L91.88,247.439Z" transform="translate(-2.923 -164.239)" fill="#ffb454"/>
  <path id="Path_1961" data-name="Path 1961" d="M219.586,214.532v2.69a5.046,5.046,0,0,1-5.044,5.044,61.6,61.6,0,0,1-61.533-61.533v-2.69A5.045,5.045,0,0,1,158.053,153,61.6,61.6,0,0,1,219.586,214.532Z" transform="translate(-101.564 -101.554)" fill="#ffb454"/>
  <path id="Path_1962" data-name="Path 1962" d="M255.2,252.844v2.69a5.045,5.045,0,0,1-5.044,5.044,61.335,61.335,0,0,1-43.49-18.043l31.815-31.815A61.3,61.3,0,0,1,255.2,252.844Z" transform="translate(-137.181 -139.866)" fill="#ff8659"/>
  <path id="Path_1963" data-name="Path 1963" d="M131.1,366.045a5.044,5.044,0,1,1-4.546-5.02A5.058,5.058,0,0,1,131.1,366.045Z" transform="translate(-80.323 -239.617)" fill="#acceff"/>
  <path id="Path_1964" data-name="Path 1964" d="M133.987,368.459a5.051,5.051,0,0,1-8.588,4.065l7.135-7.135A5.107,5.107,0,0,1,133.987,368.459Z" transform="translate(-83.237 -242.529)" fill="#989dec"/>
  <path id="Path_1965" data-name="Path 1965" d="M150.053,299.089a5.044,5.044,0,1,1,5.02-4.546A5.057,5.057,0,0,1,150.053,299.089Z" transform="translate(-96.254 -191.827)" fill="#ff5e90"/>
  <path id="Path_1966" data-name="Path 1966" d="M190.053,347.088a5.044,5.044,0,1,1,5.02-4.546A5.057,5.057,0,0,1,190.053,347.088Z" transform="translate(-122.804 -223.687)" fill="#00a763"/>
  <path id="Path_1967" data-name="Path 1967" d="M234.874,1.049a5.045,5.045,0,0,0-5.706,4.28l-1.487,10.409c-.006.044.152-.2-2.243,3.388a6.046,6.046,0,0,1-3.691.7,14.856,14.856,0,0,0-13.789,20.367,5.044,5.044,0,1,0,9.366-3.746,4.761,4.761,0,0,1,4.423-6.533h1.218a14.924,14.924,0,0,0,14.7-12.751l1.487-10.409a5.044,5.044,0,0,0-4.28-5.706Z" transform="translate(-137.323 -0.662)" fill="#ff5e90"/>
  <path id="Path_1968" data-name="Path 1968" d="M416.6,132.816a5.044,5.044,0,0,0-6.116-3.67l-4.037,1.01a13.9,13.9,0,0,0-10.543,13.5v5.514a3.83,3.83,0,0,1-4.884,3.684,13.947,13.947,0,0,0-16.617,7.9l-4.99,11.644a5.044,5.044,0,1,0,9.271,3.974l4.991-11.645a3.839,3.839,0,0,1,4.574-2.175,13.913,13.913,0,0,0,17.742-13.383v-5.514a3.826,3.826,0,0,1,2.9-3.717l4.037-1.009A5.044,5.044,0,0,0,416.6,132.816Z" transform="translate(-244.925 -85.621)" fill="#00a763"/>
  <path id="Path_1969" data-name="Path 1969" d="M342.052,19.089a5.044,5.044,0,1,1,5.021-4.546A5.058,5.058,0,0,1,342.052,19.089Z" transform="translate(-223.694 -5.976)" fill="#ff5e90"/>
  <path id="Path_1970" data-name="Path 1970" d="M262.053,131.089a5.044,5.044,0,1,1,5.02-4.546A5.057,5.057,0,0,1,262.053,131.089Z" transform="translate(-170.594 -80.316)" fill="#ffdd54"/>
  <path id="Path_1971" data-name="Path 1971" d="M198.052,11.089a5.044,5.044,0,1,1,5.02-4.546A5.058,5.058,0,0,1,198.052,11.089Z" transform="translate(-128.114 -0.666)" fill="#ace233"/>
  <path id="Path_1972" data-name="Path 1972" d="M374.053,155.082a5.044,5.044,0,1,1,5.02-4.549A5.058,5.058,0,0,1,374.053,155.082Z" transform="translate(-244.934 -96.239)" fill="#00a763"/>
  <path id="Path_1973" data-name="Path 1973" d="M462.053,83.082a5.044,5.044,0,1,1,5.02-4.546,5.058,5.058,0,0,1-5.02,4.546Z" transform="translate(-303.345 -48.449)" fill="#ffb454"/>
  <path id="Path_1974" data-name="Path 1974" d="M430.053,283.089a5.044,5.044,0,1,1,5.02-4.546A5.058,5.058,0,0,1,430.053,283.089Z" transform="translate(-282.105 -181.207)" fill="#d01273"/>
  <path id="Path_1975" data-name="Path 1975" d="M374.414,10.033l-14.6,2.122a8.608,8.608,0,0,0-6.742,4.714l-6.4,12.8a18.611,18.611,0,0,1-16.738,10.343,8.628,8.628,0,0,0-8.537,9.845l.461,3.228a5.044,5.044,0,0,1-9.986,1.426l-.461-3.228a18.716,18.716,0,0,1,18.524-21.358,8.577,8.577,0,0,0,7.716-4.768l6.4-12.8A18.681,18.681,0,0,1,358.415,2.165L372.968.054a5.042,5.042,0,0,1,1.446,9.98Z" transform="translate(-206.577 0)" fill="#acceff"/>
</svg>
